<svg xmlns="http://www.w3.org/2000/svg" width="105.891" height="28.115" viewBox="0 0 105.891 28.115">
  <g id="Groupe_43" data-name="Groupe 43" transform="translate(-43.459 -420.797)">
    <g id="Groupe_41" data-name="Groupe 41" transform="translate(43.459 420.797)">
      <path id="Tracé_7" data-name="Tracé 7" d="M73.847,430.233a.96.96,0,1,0-1.773.736,13.794,13.794,0,0,1,1.037,6.112H45.4a13.907,13.907,0,0,1,1.037-6.112.96.96,0,1,0-1.773-.736,15.81,15.81,0,0,0,12.026,21.652,16.042,16.042,0,0,0,2.573.211,15.8,15.8,0,0,0,14.58-21.862ZM62.813,443.827a1.524,1.524,0,1,1,.915-1.951A1.526,1.526,0,0,1,62.813,443.827Z" transform="translate(-43.459 -423.981)" fill="#fff"/>
      <path id="Tracé_8" data-name="Tracé 8" d="M76.1,422.153a2.871,2.871,0,0,0-1.773-1.28,2.839,2.839,0,0,0-2.157.353,2.857,2.857,0,1,0,3.93.927Zm-.275,2.01a2.215,2.215,0,0,1-2.662,1.646,2.184,2.184,0,0,1-1.376-.992,2.158,2.158,0,0,1-.269-1.67,2.218,2.218,0,0,1,2.15-1.709,2.006,2.006,0,0,1,.512.065A2.211,2.211,0,0,1,75.821,424.163Z" transform="translate(-53.305 -420.797)" fill="#fff"/>
      <circle id="Ellipse_19" data-name="Ellipse 19" cx="1.526" cy="1.526" r="1.526" transform="translate(10.192 7.787)" fill="#fff"/>
    </g>
    <g id="Groupe_42" data-name="Groupe 42" transform="translate(81.645 426.946)">
      <path id="Tracé_9" data-name="Tracé 9" d="M106.542,432.376v.282q.025.512.038.78c.008.18.017.342.026.486s.017.3.026.461.013.393.013.691v1.19q0,.744-.026,1.946.051-.23.563-.409a5.149,5.149,0,0,1,1.254-.243,9.775,9.775,0,0,1,1.574,0,5.586,5.586,0,0,1,1.523.32,2.15,2.15,0,0,1,.96.7,4.035,4.035,0,0,1,.64,1.2,8.115,8.115,0,0,1,.358,1.548,12.877,12.877,0,0,1,.115,1.741q-.051,1.281-.179,2.534a7.952,7.952,0,0,1-.55,2.265,4.02,4.02,0,0,1-1.267,1.664,4.172,4.172,0,0,1-2.3.755,2.883,2.883,0,0,1-1.357-.115,1.823,1.823,0,0,1-1.024-.986c-.051-.1-.1-.132-.141-.09a.561.561,0,0,0-.115.192c0,.188,0,.333-.013.435s-.013.239-.013.41a.439.439,0,0,1-.026.179,9.956,9.956,0,0,1-1.715.065q-.948-.038-1.741-.038-.052-1.843-.038-3.827t.051-4.044q.038-2.061.09-4.185t.051-4.25v-1.69a6.154,6.154,0,0,1,.973-.089q.563-.012,1.062,0t.845.051A.987.987,0,0,1,106.542,432.376Zm3.968,9.932a1.939,1.939,0,0,0-.756-1.357,2.768,2.768,0,0,0-1.676-.461,3.3,3.3,0,0,0-.858.09.73.73,0,0,0-.474.4,2.387,2.387,0,0,0-.192.883q-.038.575-.038,1.574,0,.819.038,1.5a3.754,3.754,0,0,0,.23,1.165,1.786,1.786,0,0,0,.55.768,1.625,1.625,0,0,0,1.024.281,1.755,1.755,0,0,0,.973-.281,2.5,2.5,0,0,0,.742-.756,3.584,3.584,0,0,0,.461-1.075,5,5,0,0,0,.154-1.242q0-.358-.026-.742A2.777,2.777,0,0,0,110.511,442.308Z" transform="translate(-103.123 -431.071)" fill="#fff"/>
      <path id="Tracé_10" data-name="Tracé 10" d="M127.989,451.927c-.086.051-.192.111-.32.179a2.123,2.123,0,0,0-.32.2,4.706,4.706,0,0,1-1.2.614,4.655,4.655,0,0,1-1.37.255,4.558,4.558,0,0,1-1.369-.153,3.038,3.038,0,0,1-1.2-.64,1.778,1.778,0,0,1-.4-.96,11.7,11.7,0,0,1-.179-1.753q-.038-1.024-.026-2.24t.038-2.457q.025-1.241.051-2.394t-.026-2.022a10.1,10.1,0,0,1,1.6-.115q.7.013,1.6.012c.034.394.051.836.051,1.331s0,1.007-.013,1.536-.008,1.058,0,1.587.03,1.024.064,1.485c.017.2.035.431.051.678a6.97,6.97,0,0,0,.09.73,3.119,3.119,0,0,0,.179.64,1,1,0,0,0,.32.435.074.074,0,0,0,.051.026.074.074,0,0,1,.051.026,2.15,2.15,0,0,0,.6.166,1.714,1.714,0,0,0,.781-.051,1.494,1.494,0,0,0,.691-.46,1.723,1.723,0,0,0,.358-1.036q.051-.871.026-1.741t-.064-1.728q-.038-.857-.051-1.7a10.131,10.131,0,0,1,.115-1.689v-.1a3.9,3.9,0,0,1,.755-.154,5.519,5.519,0,0,1,.653-.012c.222.009.469.021.742.038a7.076,7.076,0,0,0,1.024-.026q0,3.15.064,6.3t-.038,6.527c-.2-.017-.376-.029-.512-.038s-.265-.013-.384-.013-.248,0-.384.013-.307.021-.512.038a2.89,2.89,0,0,0-.358.039q-.256.038-.511.064a2.957,2.957,0,0,1-.461.013c-.136-.009-.2-.038-.2-.09a4.48,4.48,0,0,1-.038-.717A5.688,5.688,0,0,0,127.989,451.927Z" transform="translate(-109.774 -434.009)" fill="#fff"/>
      <path id="Tracé_11" data-name="Tracé 11" d="M139.778,431.485l3.481.076q0,1.05-.026,2.534t-.051,3.174q-.026,1.69-.038,3.507t-.013,3.507q0,1.69.026,3.161t.077,2.5q-.128.153-.64.166t-1.113,0q-.6-.013-1.139-.038a2.708,2.708,0,0,0-.717.026q.179-2.3.141-4.633t-.115-4.659q-.077-2.329-.09-4.659A44.678,44.678,0,0,1,139.778,431.485Z" transform="translate(-116.24 -430.794)" fill="#fff"/>
      <path id="Tracé_12" data-name="Tracé 12" d="M154.484,432.658v-.282a.988.988,0,0,1,.346-.063q.345-.038.844-.051t1.062,0a6.168,6.168,0,0,1,.973.089v1.69q0,4.275.128,8.447t.026,7.859q-.794,0-1.741.038a9.961,9.961,0,0,1-1.715-.065.439.439,0,0,1-.026-.179c0-.17,0-.307-.013-.41s-.013-.247-.013-.435a.57.57,0,0,0-.115-.192c-.043-.042-.09-.012-.141.09a1.824,1.824,0,0,1-1.023.986,2.885,2.885,0,0,1-1.357.115,4.168,4.168,0,0,1-2.3-.755,4.02,4.02,0,0,1-1.267-1.664,8.216,8.216,0,0,1-.563-2.265q-.141-1.255-.166-2.534a12.874,12.874,0,0,1,.115-1.741,8.066,8.066,0,0,1,.358-1.548,4.005,4.005,0,0,1,.64-1.2,2.143,2.143,0,0,1,.96-.7,5.571,5.571,0,0,1,1.523-.32,9.783,9.783,0,0,1,1.574,0,5.15,5.15,0,0,1,1.254.243q.513.178.563.409-.025-1.2-.026-1.946v-1.19q0-.447.013-.691t.026-.461c.009-.144.017-.307.026-.486S154.468,433,154.484,432.658Zm-3.967,9.65a2.68,2.68,0,0,0-.153.742q-.026.384-.026.742a5,5,0,0,0,.154,1.242,3.585,3.585,0,0,0,.461,1.075,2.507,2.507,0,0,0,.742.756,1.753,1.753,0,0,0,.973.281,1.638,1.638,0,0,0,1.011-.281,1.748,1.748,0,0,0,.563-.768,3.773,3.773,0,0,0,.23-1.165q.039-.679.039-1.5,0-1-.039-1.574a2.4,2.4,0,0,0-.191-.883.733.733,0,0,0-.474-.4,3.3,3.3,0,0,0-.857-.09,2.769,2.769,0,0,0-1.677.461A1.94,1.94,0,0,0,150.517,442.308Z" transform="translate(-119.069 -431.071)" fill="#fff"/>
      <path id="Tracé_13" data-name="Tracé 13" d="M169.617,437.3h.435v.077q-.026,3.1-.115,6.323t.09,6.323q-.129.153-.64.166c-.342.008-.712.008-1.114,0s-.78-.021-1.139-.038a2.708,2.708,0,0,0-.717.026q.128-1.613.115-3.277t-.064-3.3q-.052-1.638-.051-3.238a30.76,30.76,0,0,1,.154-3.11v-.026a1.2,1.2,0,0,1,.346,0,3.568,3.568,0,0,0,.371.026q.332.027.922.051C168.6,437.323,169.07,437.323,169.617,437.3Zm-3.149-5.58,3.481.077c0,.1,0,.286.013.55s.017.554.026.87.017.64.026.973.013.627.013.883a.666.666,0,0,1-.474.2,5.4,5.4,0,0,1-.87.038q-.5-.012-1.062-.051a8.831,8.831,0,0,0-1.05-.013q0-.742-.064-1.549T166.468,431.725Z" transform="translate(-125.908 -430.88)" fill="#fff"/>
      <path id="Tracé_14" data-name="Tracé 14" d="M181.28,432.658v-.282a.987.987,0,0,1,.346-.063q.346-.038.845-.051c.332-.008.687-.008,1.062,0a6.169,6.169,0,0,1,.973.089v1.69q0,4.275.128,8.447t.026,7.859q-.793,0-1.741.038a9.956,9.956,0,0,1-1.715-.065.428.428,0,0,1-.026-.179c0-.17,0-.307-.013-.41s-.013-.247-.013-.435a.582.582,0,0,0-.115-.192c-.043-.042-.09-.012-.141.09a1.825,1.825,0,0,1-1.024.986,2.882,2.882,0,0,1-1.356.115,4.172,4.172,0,0,1-2.3-.755,4.02,4.02,0,0,1-1.267-1.664,8.239,8.239,0,0,1-.563-2.265q-.14-1.255-.166-2.534a12.773,12.773,0,0,1,.116-1.741,8.066,8.066,0,0,1,.358-1.548,4.02,4.02,0,0,1,.64-1.2,2.143,2.143,0,0,1,.96-.7,5.581,5.581,0,0,1,1.523-.32,9.783,9.783,0,0,1,1.574,0,5.161,5.161,0,0,1,1.254.243q.512.178.563.409-.026-1.2-.026-1.946v-1.19c0-.3,0-.529.013-.691s.017-.316.026-.461.017-.307.026-.486S181.263,433,181.28,432.658Zm-3.967,9.65a2.705,2.705,0,0,0-.154.742q-.026.384-.026.742a4.965,4.965,0,0,0,.154,1.242,3.6,3.6,0,0,0,.46,1.075,2.509,2.509,0,0,0,.743.756,1.751,1.751,0,0,0,.972.281,1.637,1.637,0,0,0,1.011-.281,1.744,1.744,0,0,0,.563-.768,3.753,3.753,0,0,0,.23-1.165q.038-.679.038-1.5,0-1-.038-1.574a2.388,2.388,0,0,0-.192-.883.732.732,0,0,0-.474-.4,3.306,3.306,0,0,0-.858-.09,2.772,2.772,0,0,0-1.677.461A1.937,1.937,0,0,0,177.313,442.308Z" transform="translate(-128.715 -431.071)" fill="#fff"/>
      <path id="Tracé_15" data-name="Tracé 15" d="M196.179,443.28v.461q.025.768.063,1.254a2.125,2.125,0,0,0,.32.947,1.952,1.952,0,0,0,.87.87,1.7,1.7,0,0,0,1.1.179,1.428,1.428,0,0,0,.909-.627,2.516,2.516,0,0,0,.32-1.574,5.512,5.512,0,0,0,.691.013q.435-.012.908-.038t.909-.013a3.157,3.157,0,0,1,.717.09c-.035.444-.068.879-.1,1.306s-.077.823-.128,1.19a6.8,6.8,0,0,1-.192.947,1.137,1.137,0,0,1-.294.55,2.355,2.355,0,0,1-1.126.87,5.3,5.3,0,0,1-1.51.307,13.82,13.82,0,0,1-1.677,0q-.857-.052-1.574-.051a3.643,3.643,0,0,1-1.331-.461,4.021,4.021,0,0,1-1.152-1.267,7.747,7.747,0,0,1-.742-1.715,10.27,10.27,0,0,1-.385-1.984,14.456,14.456,0,0,1-.051-2.1q.077-.947.166-1.83a7.129,7.129,0,0,1,.4-1.727,3.241,3.241,0,0,1,1.024-1.268,4.988,4.988,0,0,1,1.562-.793,6.8,6.8,0,0,1,1.843-.294,7.058,7.058,0,0,1,1.894.2,3.879,3.879,0,0,1,1.894.819,4,4,0,0,1,1.087,1.485,5.97,5.97,0,0,1,.448,1.92,14.7,14.7,0,0,1,0,2.124,4.483,4.483,0,0,1-.678.1q-.5.052-1.178.1t-1.446.077q-.768.025-1.472.026t-1.254-.026A6.7,6.7,0,0,1,196.179,443.28Zm3.967-12.875,1.766,1.792-.026.026q-.179.18-.563.512t-.793.7q-.41.371-.768.7a2.182,2.182,0,0,0-.461.538q-.41.052-.934.065t-1.023-.013q-.5-.025-.9-.064a3.5,3.5,0,0,1-.576-.09q.435-.409.985-.985l1.126-1.178q.576-.6,1.139-1.126T200.146,430.4Zm-.87,8.908a1.8,1.8,0,0,0-.41-.192,1.656,1.656,0,0,0-.486-.064,3.236,3.236,0,0,0-1,.128,1.543,1.543,0,0,0-.614.358,1.5,1.5,0,0,0-.346.537,3.267,3.267,0,0,0-.167.64,1.579,1.579,0,0,0-.038.4q.012.115.243.154a4.2,4.2,0,0,0,.729.026q.5-.013,1.472-.013.665,0,1,.026a3.1,3.1,0,0,0,.474.013c.093-.009.141-.035.141-.077v-.269a1.9,1.9,0,0,0-.269-.973A1.724,1.724,0,0,0,199.276,439.313Z" transform="translate(-135.371 -430.405)" fill="#fff"/>
    </g>
  </g>
</svg>
