<svg id="Groupe_41" data-name="Groupe 41" xmlns="http://www.w3.org/2000/svg" width="31.596" height="28.115" viewBox="0 0 31.596 28.115">
  <path id="Tracé_7" data-name="Tracé 7" d="M73.847,430.233a.96.96,0,1,0-1.773.736,13.794,13.794,0,0,1,1.037,6.112H45.4a13.907,13.907,0,0,1,1.037-6.112.96.96,0,1,0-1.773-.736,15.81,15.81,0,0,0,12.026,21.652,16.042,16.042,0,0,0,2.573.211,15.8,15.8,0,0,0,14.58-21.862ZM62.813,443.827a1.524,1.524,0,1,1,.915-1.951A1.526,1.526,0,0,1,62.813,443.827Z" transform="translate(-43.459 -423.981)" fill="#fff"/>
  <path id="Tracé_8" data-name="Tracé 8" d="M76.1,422.153a2.871,2.871,0,0,0-1.773-1.28,2.839,2.839,0,0,0-2.157.353,2.857,2.857,0,1,0,3.93.927Zm-.275,2.01a2.215,2.215,0,0,1-2.662,1.646,2.184,2.184,0,0,1-1.376-.992,2.158,2.158,0,0,1-.269-1.67,2.218,2.218,0,0,1,2.15-1.709,2.006,2.006,0,0,1,.512.065A2.211,2.211,0,0,1,75.821,424.163Z" transform="translate(-53.305 -420.797)" fill="#fff"/>
  <circle id="Ellipse_19" data-name="Ellipse 19" cx="1.526" cy="1.526" r="1.526" transform="translate(10.192 7.787)" fill="#fff"/>
</svg>
